<?xml version="1.0" encoding="utf-8"?>
<!-- Generator: Adobe Illustrator 16.0.0, SVG Export Plug-In . SVG Version: 6.00 Build 0)  -->
<!DOCTYPE svg PUBLIC "-//W3C//DTD SVG 1.1//EN" "http://www.w3.org/Graphics/SVG/1.1/DTD/svg11.dtd">
<svg version="1.1" xmlns="http://www.w3.org/2000/svg" xmlns:xlink="http://www.w3.org/1999/xlink" x="0px" y="0px"
	 width="607.469px" height="467.554px" viewBox="0 0 607.469 467.554" enable-background="new 0 0 607.469 467.554"
	 xml:space="preserve">
<g id="background">
	<rect id="_x3C_Slice_x3E_" x="-28.977" y="-15" fill="none" width="649.946" height="494.002"/>
</g>
<g id="Objects">
	<g>
		<path id="circle" fill="#79C0C9" d="M311.017,447.507c-119.565,0-216.492-96.933-216.492-216.504
			c0-119.57,96.927-216.504,216.492-216.504c119.577,0,216.505,96.934,216.505,216.504
			C527.522,350.574,430.593,447.507,311.017,447.507z"/>
		<g id="pencil">
			<path fill="#F9A818" d="M587.713,186.117l-147.508,0.001c0.279,1.18,1.709,2.106,3.501,2.253h144.005L587.713,186.117z"/>
			<path fill="#F5E6B6" d="M587.711,193.733v-5.362H443.707l0.003,0.001c-0.016,0.001-0.029,0.004-0.045,0.006
				c0.015,0.001,0.036,0.001,0.05,0.002c-2.006,0.164-3.56,1.295-3.563,2.671c0.004,1.376,1.558,2.507,3.563,2.67
				c-0.014,0.001-0.035,0.001-0.05,0.002c0.016,0.001,0.029,0.006,0.045,0.007l-0.002,0.001H587.711z"/>
			<path fill="#F9A818" d="M443.708,193.733c-1.794,0.146-3.224,1.073-3.503,2.253h147.507v-2.253H443.708z"/>
			<path fill="#F0B16C" d="M440.205,195.991c0.274-1.182,1.705-2.111,3.503-2.258l0.002-0.001c-0.016-0.001-0.029-0.006-0.045-0.007
				c0.015-0.001,0.036-0.001,0.05-0.002c-2.005-0.163-3.559-1.294-3.563-2.67c0.003-1.375,1.557-2.507,3.563-2.671
				c-0.014-0.001-0.035-0.001-0.05-0.002c0.016-0.002,0.029-0.005,0.045-0.006l-0.003-0.001c-1.797-0.147-3.227-1.075-3.502-2.259
				l-9.449,4.94L440.205,195.991z"/>
			<path fill="#103754" d="M435.393,188.627l-4.638,2.425l4.637,2.426c0.283-0.782,0.439-1.59,0.438-2.426
				C435.832,190.217,435.675,189.405,435.393,188.627z"/>
			<g>
				<rect x="587.768" y="186.117" fill="#C62229" width="4.473" height="2.254"/>
				<rect x="587.768" y="188.371" fill="#F85A68" width="4.471" height="5.362"/>
				<rect x="587.768" y="193.733" fill="#C62229" width="4.473" height="2.253"/>
			</g>
		</g>
		<g id="glasses">
			<g>
				<g>
					<path fill="#50667E" d="M595.736,157.607c-0.472,0-0.954-0.111-1.393-0.358l-24.749-13.298
						c-4.761-2.56-9.833-4.524-15.07-5.842c-5.238-1.326-10.638-1.992-16.043-1.992H429.695v-5.899h108.786
						c5.89,0,11.77,0.735,17.484,2.169c5.705,1.438,11.229,3.583,16.418,6.375l24.75,13.298c1.437,0.771,1.971,2.559,1.201,3.99
						C597.802,157.04,596.785,157.607,595.736,157.607z"/>
					<path fill="#50667E" d="M426.582,157.607c0.471,0,0.951-0.111,1.396-0.358l24.745-13.298c4.76-2.56,9.831-4.524,15.066-5.842
						c5.239-1.326,10.641-1.992,16.044-1.992h108.79v-5.899h-108.79c-5.892,0-11.772,0.735-17.481,2.169
						c-5.709,1.438-11.229,3.583-16.423,6.375l-24.747,13.298c-1.434,0.771-1.972,2.559-1.201,3.99
						C424.515,157.04,425.533,157.607,426.582,157.607z"/>
				</g>
			</g>
			<path fill="#20364D" d="M503.407,134.914L503.407,134.914c0-4.274,3.478-7.745,7.749-7.745c4.277,0,7.755,3.471,7.755,7.745l0,0
				h5.894l0,0c0-7.536-6.105-13.645-13.648-13.645c-7.535,0-13.644,6.109-13.644,13.645l0,0H503.407z"/>
			<g>
				<path fill="#E1EFFA" d="M497.512,144.144c0,6.211-5.082,11.293-11.293,11.293h-39.338c-6.211,0-11.292-5.082-11.292-11.293
					v-21.207c0-6.211,5.081-11.294,11.292-11.294h39.338c6.211,0,11.293,5.083,11.293,11.294V144.144z"/>
				<path fill="#CEE2F2" d="M486.219,111.643h-21.643v43.794h21.643c6.211,0,11.293-5.082,11.293-11.293v-21.207
					C497.512,116.726,492.43,111.643,486.219,111.643z"/>
			</g>
			<g>
				<path fill="#E1EFFA" d="M586.554,144.144c0,6.211-5.083,11.293-11.294,11.293h-39.338c-6.211,0-11.292-5.082-11.292-11.293
					v-21.207c0-6.211,5.081-11.294,11.292-11.294h39.338c6.211,0,11.294,5.083,11.294,11.294V144.144z"/>
				<path fill="#CEE2F2" d="M575.26,111.643h-21.642v43.794h21.642c6.211,0,11.294-5.082,11.294-11.293v-21.207
					C586.554,116.726,581.471,111.643,575.26,111.643z"/>
			</g>
			<path fill="#2A445E" d="M489.148,105.895h-45.195c-7.843,0-14.258,6.417-14.258,14.257v26.775
				c0,7.842,6.415,14.258,14.258,14.258h45.195c7.843,0,14.259-6.416,14.259-14.258v-26.775
				C503.407,112.312,496.991,105.895,489.148,105.895z M497.512,144.144c0,6.211-5.082,11.293-11.293,11.293h-39.338
				c-6.211,0-11.292-5.082-11.292-11.293v-21.207c0-6.211,5.081-11.294,11.292-11.294h39.338c6.211,0,11.293,5.083,11.293,11.294
				V144.144z"/>
			<path fill="#2A445E" d="M578.19,105.895h-45.195c-7.843,0-14.259,6.417-14.259,14.257v26.775c0,7.842,6.416,14.258,14.259,14.258
				h45.195c7.843,0,14.258-6.416,14.258-14.258v-26.775C592.448,112.312,586.033,105.895,578.19,105.895z M586.554,144.144
				c0,6.211-5.083,11.293-11.294,11.293h-39.338c-6.211,0-11.292-5.082-11.292-11.293v-21.207c0-6.211,5.081-11.294,11.292-11.294
				h39.338c6.211,0,11.294,5.083,11.294,11.294V144.144z"/>
		</g>
		<g id="paper">
			<g>
				<path fill-rule="evenodd" clip-rule="evenodd" fill="#FFFFFF" d="M-9.999,108.671l245.317,0.135l-0.194,346.951l-245.317-0.137
					L-9.999,108.671z"/>
				<g>
					<path fill="#A6DAE9" d="M140.454,291.17c-1.319,4.075-3.442,7.74-6.289,10.807l21.45,29.947
						c10.841-9.344,18.629-22.109,21.579-36.679L140.454,291.17z"/>
					<path fill="#F99B1C" d="M118.564,253.188c12.498,2.604,21.966,13.145,23.209,26.07l36.688,4.047
						c0-0.413,0.052-0.813,0.052-1.239c0-34.385-26.34-62.602-59.949-65.643V253.188z"/>
					<path fill="#15B0BF" d="M90.855,262.296c4.085-4.525,9.491-7.813,15.731-9.108v-36.765c-19.589,1.76-36.61,12.083-47.504,27.17
						L90.855,262.296z"/>
					<path fill="#4C8EB4" d="M124.464,308.987c-3.648,1.63-7.659,2.563-11.903,2.563c-16.275,0-29.471-13.21-29.471-29.484
						c0-3.325,0.673-6.458,1.686-9.432l-31.774-18.721c-4.035,8.55-6.391,18.062-6.391,28.152c0,36.428,29.52,65.938,65.951,65.938
						c12.159,0,23.522-3.324,33.299-9.095L124.464,308.987z"/>
				</g>
				<g>
					<rect x="15.36" y="132.055" fill="#F99B1C" width="30.699" height="8.934"/>
					<rect x="15.36" y="152.414" fill="#15B0BF" width="30.699" height="8.933"/>
					<rect x="15.36" y="172.772" fill="#A6DAE9" width="30.699" height="8.932"/>
					<rect x="15.36" y="193.132" fill="#4C8EB4" width="30.699" height="8.932"/>
					<rect x="66.844" y="132.5" fill="#CCCCCC" width="142.919" height="10.052"/>
					<rect x="66.844" y="162.54" fill="#CCCCCC" width="142.919" height="10.043"/>
					<rect x="66.844" y="192.58" fill="#CCCCCC" width="142.919" height="10.037"/>
					<rect x="66.844" y="177.562" fill="#CCCCCC" width="142.919" height="10.035"/>
					<rect x="66.844" y="147.526" fill="#CCCCCC" width="142.919" height="10.035"/>
				</g>
				<g>
					<rect x="15.363" y="357.175" fill="#CCCCCC" width="6.496" height="69.025"/>
					<rect x="15.36" y="426.2" fill="#CCCCCC" width="194.403" height="6.496"/>
					<g>
						<rect x="38.913" y="395.506" fill="#15B0BF" width="17.403" height="30.694"/>
						<rect x="38.913" y="380.161" fill="#A6DAE9" width="17.403" height="15.345"/>
					</g>
					<g>
						<rect x="71.367" y="382.215" fill="#15B0BF" width="17.405" height="43.985"/>
						<rect x="71.367" y="373.418" fill="#A6DAE9" width="17.405" height="8.797"/>
					</g>
					<g>
						<rect x="103.822" y="403.867" fill="#15B0BF" width="17.404" height="22.333"/>
						<rect x="103.822" y="387.833" fill="#A6DAE9" width="17.404" height="16.034"/>
					</g>
					<g>
						<rect x="136.277" y="413.41" fill="#15B0BF" width="17.404" height="12.79"/>
						<rect x="136.277" y="400.622" fill="#A6DAE9" width="17.404" height="12.788"/>
					</g>
				</g>
			</g>
			
				<rect x="164.555" y="108.785" transform="matrix(-1 -5.802234e-004 5.802234e-004 -1 399.6367 520.0681)" opacity="0.1" fill-rule="evenodd" clip-rule="evenodd" width="70.678" height="302.382"/>
			<g>
				<path fill-rule="evenodd" clip-rule="evenodd" fill="#FFFFFF" d="M176.498,55.776l243.031,0.135l-0.192,343.717l-243.031-0.137
					L176.498,55.776z"/>
				<g>
					<polygon fill-rule="evenodd" clip-rule="evenodd" fill="#4C8EB4" points="206.997,233.451 227.985,233.463 227.95,252.557 
						206.958,252.544 					"/>
					<polygon fill-rule="evenodd" clip-rule="evenodd" fill="#609DC1" points="231.25,225.232 252.242,225.242 252.218,252.568 
						231.228,252.557 					"/>
					<polygon fill-rule="evenodd" clip-rule="evenodd" fill="#73ACCD" points="255.514,206.094 276.503,206.104 276.486,252.582 
						255.498,252.57 					"/>
					
						<rect x="279.777" y="212.557" transform="matrix(-1 -6.281455e-004 6.281455e-004 -1 580.3973 465.3278)" fill-rule="evenodd" clip-rule="evenodd" fill="#87BBDA" width="20.989" height="40.031"/>
					<polygon fill-rule="evenodd" clip-rule="evenodd" fill="#9ACAE6" points="304.051,232.56 325.041,232.571 325.024,252.609 
						304.037,252.598 					"/>
					
						<rect x="327.696" y="224.984" transform="matrix(-1 -5.582889e-004 5.582889e-004 -1 676.2465 477.7493)" fill-rule="evenodd" clip-rule="evenodd" fill="#73ACCD" width="20.988" height="27.592"/>
					
						<rect x="351.968" y="212.551" transform="matrix(-1 -6.515105e-004 6.515105e-004 -1 724.7722 465.3752)" fill-rule="evenodd" clip-rule="evenodd" fill="#87BBDA" width="20.987" height="40.037"/>
					<polygon fill-rule="evenodd" clip-rule="evenodd" fill="#9ACAE6" points="376.239,186.11 397.23,186.12 397.214,252.609 
						376.226,252.598 					"/>
				</g>
				
					<rect x="198.67" y="280.853" transform="matrix(-1 -5.468448e-004 5.468448e-004 -1 488.2451 567.8903)" fill-rule="evenodd" clip-rule="evenodd" fill="#CCCCCC" width="91.061" height="6.051"/>
				
					<rect x="198.66" y="291.44" transform="matrix(-1 -5.361160e-004 5.361160e-004 -1 488.2269 589.0625)" fill-rule="evenodd" clip-rule="evenodd" fill="#CCCCCC" width="91.065" height="6.051"/>
				
					<rect x="198.656" y="302.029" transform="matrix(-1 -5.575736e-004 5.575736e-004 -1 488.2044 610.2445)" fill-rule="evenodd" clip-rule="evenodd" fill="#CCCCCC" width="91.062" height="6.05"/>
				
					<rect x="198.651" y="312.617" transform="matrix(-1 -5.575736e-004 5.575736e-004 -1 488.1877 631.4193)" fill-rule="evenodd" clip-rule="evenodd" fill="#CCCCCC" width="91.062" height="6.049"/>
				
					<rect x="198.644" y="323.206" transform="matrix(-1 -5.468448e-004 5.468448e-004 -1 488.1717 652.5953)" fill-rule="evenodd" clip-rule="evenodd" fill="#CCCCCC" width="91.062" height="6.051"/>
				
					<rect x="198.637" y="333.793" transform="matrix(-1 -5.575736e-004 5.575736e-004 -1 488.15 673.7738)" fill-rule="evenodd" clip-rule="evenodd" fill="#CCCCCC" width="91.064" height="6.052"/>
				
					<rect x="198.629" y="344.381" transform="matrix(-1 -5.468448e-004 5.468448e-004 -1 488.1342 694.9508)" fill-rule="evenodd" clip-rule="evenodd" fill="#CCCCCC" width="91.066" height="6.055"/>
				
					<rect x="198.627" y="354.958" transform="matrix(-1 -5.575736e-004 5.575736e-004 -1 442.5865 716.0902)" fill-rule="evenodd" clip-rule="evenodd" fill="#CCCCCC" width="45.532" height="6.051"/>
				
					<rect x="306.026" y="280.913" transform="matrix(-1 -5.361160e-004 5.361160e-004 -1 702.9635 568.0654)" fill-rule="evenodd" clip-rule="evenodd" fill="#CCCCCC" width="91.063" height="6.051"/>
				
					<rect x="306.019" y="291.501" transform="matrix(-1 -5.575736e-004 5.575736e-004 -1 702.9382 589.2477)" fill-rule="evenodd" clip-rule="evenodd" fill="#CCCCCC" width="91.065" height="6.05"/>
				
					<rect x="306.014" y="302.088" transform="matrix(-1 -5.253871e-004 5.253871e-004 -1 702.931 610.4142)" fill-rule="evenodd" clip-rule="evenodd" fill="#CCCCCC" width="91.063" height="6.053"/>
				
					<rect x="306.009" y="312.678" transform="matrix(-1 -5.575736e-004 5.575736e-004 -1 702.9059 631.5992)" fill-rule="evenodd" clip-rule="evenodd" fill="#CCCCCC" width="91.063" height="6.048"/>
				
					<rect x="306.004" y="323.266" transform="matrix(-1 -5.683025e-004 5.683025e-004 -1 702.8839 652.7808)" fill-rule="evenodd" clip-rule="evenodd" fill="#CCCCCC" width="91.061" height="6.049"/>
				
					<rect x="305.996" y="333.854" transform="matrix(-1 -5.575736e-004 5.575736e-004 -1 702.8678 673.9547)" fill-rule="evenodd" clip-rule="evenodd" fill="#CCCCCC" width="91.063" height="6.05"/>
				
					<rect x="305.988" y="344.441" transform="matrix(-1 -5.361160e-004 5.361160e-004 -1 702.8552 695.124)" fill-rule="evenodd" clip-rule="evenodd" fill="#CCCCCC" width="91.065" height="6.053"/>
				
					<rect x="305.985" y="355.024" transform="matrix(-1 -5.332549e-004 5.332549e-004 -1 675.8774 716.2779)" fill-rule="evenodd" clip-rule="evenodd" fill="#CCCCCC" width="64.098" height="6.05"/>
				<g>
					<g>
						<polygon fill="#FEC00F" points="211.764,170.415 206.179,162.847 275.48,111.735 320.523,142.528 392.455,93.271 
							397.764,101.029 320.525,153.921 275.687,123.268 						"/>
					</g>
					<g>
						<polygon fill="#FEC00F" points="398.421,117.501 390.896,117.501 390.896,100.911 374.306,100.911 374.306,93.389 
							398.421,93.389 						"/>
					</g>
				</g>
				<circle fill="#15B0BF" cx="319.926" cy="146.459" r="10.344"/>
				<circle fill="#15B0BF" cx="275.739" cy="117.501" r="10.343"/>
			</g>
		</g>
		<g id="magnifying_glass">
			<path opacity="0.1" fill="#FFFFFF" d="M313.521,281.976c-9.751,9.751-15.135,22.701-15.166,36.451
				c-0.054,28.502,23.09,51.731,51.596,51.775c13.828,0.027,26.839-5.357,36.661-15.172l0,0
				c9.747-9.747,15.128-22.681,15.152-36.422c0.026-13.789-5.342-26.772-15.105-36.567c-9.761-9.799-22.729-15.202-36.52-15.23
				C336.333,266.789,323.327,272.175,313.521,281.976L313.521,281.976z"/>
			<g>
				<g>
					<path fill="none" d="M393.31,361.729"/>
				</g>
				<g>
					<path fill="#A6DAE9" d="M383.158,358.187c0.574-0.479,1.141-0.972,1.695-1.479
						C384.298,357.215,383.732,357.708,383.158,358.187z"/>
					<path fill="#A6DAE9" d="M384.966,356.604c0.558-0.512,1.107-1.035,1.646-1.574
						C386.074,355.569,385.523,356.093,384.966,356.604z"/>
					<path opacity="0.6" fill="#FFFFFF" d="M313.521,281.976c8.759-8.755,20.074-13.982,32.232-14.984
						c-2.375,0.198-4.717,0.56-7.016,1.074c-5.627,2.545-10.811,6.099-15.315,10.609c-9.75,9.75-15.13,22.694-15.156,36.449
						c-0.055,28.502,23.093,51.728,51.596,51.786c3.881,0.003,7.706-0.429,11.41-1.257c4.211-1.905,8.177-4.379,11.797-7.392
						c-9.309,7.756-20.894,11.964-33.117,11.94c-28.506-0.044-51.65-23.273-51.596-51.775
						C298.386,304.677,303.77,291.727,313.521,281.976z"/>
					<path fill="#A6DAE9" d="M345.843,266.983c0.406-0.032,0.814-0.06,1.224-0.084C346.658,266.925,346.25,266.95,345.843,266.983z"
						/>
					<path fill="#A6DAE9" d="M347.323,266.885c0.365-0.019,0.73-0.033,1.096-0.044C348.053,266.852,347.688,266.865,347.323,266.885
						z"/>
					<path fill="#A6DAE9" d="M348.751,266.829c0.462-0.012,0.925-0.019,1.389-0.019
						C349.676,266.811,349.213,266.817,348.751,266.829z"/>
				</g>
				<g>
					<path fill="#0E303F" d="M413.674,382.669c-3.47,3.467-9.098,3.45-12.562-0.024l-11.072-11.431
						c-3.456-3.477-3.452-9.09,0.008-12.55c0,0,0.018-0.011,0.027-0.016c3.473-3.462,9.097-3.454,12.562,0.028l11.071,11.427
						c3.456,3.47,3.452,9.087-0.013,12.55C413.696,382.653,413.678,382.664,413.674,382.669z"/>
				</g>
			</g>
			<path fill="#2C5871" d="M280.585,318.395c-0.072,38.296,31.037,69.517,69.337,69.585c18.585,0.031,36.083-7.203,49.254-20.378
				c0,0,0,0,0-0.006c13.099-13.093,20.322-30.483,20.353-48.958c0.037-18.53-7.17-35.985-20.281-49.143
				c-13.112-13.155-30.544-20.422-49.07-20.454c-18.579-0.026-36.058,7.2-49.227,20.366
				C287.851,282.511,280.614,299.911,280.585,318.395z M298.355,318.427c0.03-13.75,5.415-26.7,15.166-36.451
				c9.806-9.801,22.813-15.187,36.619-15.165c13.791,0.028,26.759,5.432,36.52,15.23c9.764,9.795,15.132,22.778,15.105,36.567
				c-0.024,13.741-5.405,26.675-15.152,36.422c-9.822,9.814-22.833,15.199-36.661,15.172
				C321.446,370.158,298.302,346.929,298.355,318.427z"/>
			
				<rect x="428.655" y="359.404" transform="matrix(-0.7071 0.7071 -0.7071 -0.7071 1055.96 393.319)" fill="#103754" width="35.732" height="111.903"/>
			
				<rect x="436.056" y="359.404" transform="matrix(-0.7071 0.7071 -0.7071 -0.7071 1055.9584 393.3196)" fill="#2C5871" width="20.927" height="111.904"/>
			
				<rect x="462.15" y="440.271" transform="matrix(-0.7071 0.7071 -0.7071 -0.7071 1136.8259 426.8154)" fill="#0E303F" width="35.734" height="17.163"/>
			
				<rect x="469.553" y="440.27" transform="matrix(-0.7071 0.7071 -0.7071 -0.7071 1136.8254 426.8365)" fill="#164866" width="20.927" height="17.163"/>
			<g>
				<path opacity="0.6" fill="#FFFFFF" d="M373.513,281.8c-12.364-6.106-26.357-7.05-39.39-2.666
					c-4.524,1.523-8.689,3.627-12.463,6.182l3.818,10.123c4.398-3.379,9.408-6.112,14.952-7.979
					c13.035-4.39,27.021-3.448,39.386,2.657c5.704,2.815,10.812,6.724,15.023,11.226C389.799,293.002,382.488,286.234,373.513,281.8
					z"/>
			</g>
		</g>
		<g id="calculator">
			<path fill="#617B93" d="M564.748,263.986H458.249v101.562c0,1.263,0.482,2.526,1.45,3.488c0.962,0.96,2.223,1.442,3.485,1.442
				h96.631c1.26,0,2.521-0.482,3.486-1.442c0.959-0.962,1.446-2.226,1.446-3.488V263.986z"/>
			<polygon opacity="0.1" fill="#FFFFFF" points="471.721,263.986 564.748,263.986 564.748,353.34 			"/>
			<g>
				<g>
					<g>
						<path fill="#21D8DE" d="M506.395,286.835c0,0.476-0.391,0.865-0.862,0.865h-35.477c-0.475,0-0.86-0.39-0.86-0.865v-11.416
							c0-0.469,0.386-0.859,0.86-0.859h35.477c0.472,0,0.862,0.391,0.862,0.859V286.835z"/>
					</g>
					<g>
						<path fill="#E64717" d="M530.464,286.835c0,0.476-0.39,0.865-0.865,0.865h-11.403c-0.473,0-0.86-0.39-0.86-0.865v-11.416
							c0-0.469,0.388-0.859,0.86-0.859h11.403c0.476,0,0.865,0.391,0.865,0.859V286.835z"/>
					</g>
					<g>
						<g>
							<path fill="#F2F9FF" d="M554.527,286.835c0,0.476-0.385,0.865-0.857,0.865h-11.408c-0.471,0-0.856-0.39-0.856-0.865v-11.416
								c0-0.469,0.386-0.859,0.856-0.859h11.408c0.473,0,0.857,0.391,0.857,0.859V286.835z"/>
						</g>
					</g>
					<g>
						<g>
							<path fill="#F2F9FF" d="M482.322,310.91c0,0.47-0.382,0.854-0.856,0.854h-11.409c-0.475,0-0.86-0.385-0.86-0.854v-11.415
								c0-0.476,0.386-0.859,0.86-0.859h11.409c0.475,0,0.856,0.384,0.856,0.859V310.91z"/>
						</g>
					</g>
					<g>
						<g>
							<path fill="#F2F9FF" d="M506.395,310.91c0,0.47-0.391,0.854-0.862,0.854h-11.407c-0.476,0-0.862-0.385-0.862-0.854v-11.415
								c0-0.476,0.387-0.859,0.862-0.859h11.407c0.472,0,0.862,0.384,0.862,0.859V310.91z"/>
						</g>
					</g>
					<g>
						<g>
							<path fill="#F2F9FF" d="M530.464,310.91c0,0.47-0.39,0.854-0.865,0.854h-11.403c-0.473,0-0.86-0.385-0.86-0.854v-11.415
								c0-0.476,0.388-0.859,0.86-0.859h11.403c0.476,0,0.865,0.384,0.865,0.859V310.91z"/>
						</g>
					</g>
					<g>
						<g>
							<path fill="#F2F9FF" d="M554.527,310.91c0,0.47-0.385,0.854-0.857,0.854h-11.408c-0.471,0-0.856-0.385-0.856-0.854v-11.415
								c0-0.476,0.386-0.859,0.856-0.859h11.408c0.473,0,0.857,0.384,0.857,0.859V310.91z"/>
						</g>
					</g>
					<g>
						<g>
							<path fill="#F2F9FF" d="M482.322,334.975c0,0.475-0.382,0.86-0.856,0.86h-11.409c-0.475,0-0.86-0.386-0.86-0.86v-11.41
								c0-0.475,0.386-0.859,0.86-0.859h11.409c0.475,0,0.856,0.385,0.856,0.859V334.975z"/>
						</g>
					</g>
					<g>
						<g>
							<path fill="#F2F9FF" d="M506.395,334.975c0,0.475-0.391,0.86-0.862,0.86h-11.407c-0.476,0-0.862-0.386-0.862-0.86v-11.41
								c0-0.475,0.387-0.859,0.862-0.859h11.407c0.472,0,0.862,0.385,0.862,0.859V334.975z"/>
						</g>
					</g>
					<g>
						<path fill="#20364D" d="M530.464,334.975c0,0.475-0.39,0.86-0.865,0.86h-11.403c-0.473,0-0.86-0.386-0.86-0.86v-11.41
							c0-0.475,0.388-0.859,0.86-0.859h11.403c0.476,0,0.865,0.385,0.865,0.859V334.975z"/>
					</g>
					<g>
						<g>
							<path fill="#F2F9FF" d="M482.322,359.044c0,0.476-0.382,0.86-0.856,0.86h-11.409c-0.475,0-0.86-0.385-0.86-0.86V347.64
								c0-0.475,0.386-0.865,0.86-0.865h11.409c0.475,0,0.856,0.391,0.856,0.865V359.044z"/>
						</g>
					</g>
					<g>
						<g>
							<path fill="#F2F9FF" d="M506.395,359.044c0,0.476-0.391,0.86-0.862,0.86h-11.407c-0.476,0-0.862-0.385-0.862-0.86V347.64
								c0-0.475,0.387-0.865,0.862-0.865h11.407c0.472,0,0.862,0.391,0.862,0.865V359.044z"/>
						</g>
					</g>
					<g>
						<g>
							<path fill="#20364D" d="M530.464,359.044c0,0.476-0.39,0.86-0.865,0.86h-11.403c-0.473,0-0.86-0.385-0.86-0.86V347.64
								c0-0.475,0.388-0.865,0.86-0.865h11.403c0.476,0,0.865,0.391,0.865,0.865V359.044z"/>
						</g>
					</g>
					<g>
						<path fill="#20364D" d="M554.527,359.044c0,0.476-0.385,0.86-0.857,0.86h-11.408c-0.471,0-0.856-0.385-0.856-0.86V347.64
							c0-0.475,0.386-0.865,0.856-0.865h11.408c0.473,0,0.857,0.391,0.857,0.865V359.044z"/>
					</g>
					<g>
						<path fill="#20364D" d="M554.527,334.975c0,0.475-0.385,0.86-0.857,0.86h-11.408c-0.471,0-0.856-0.386-0.856-0.86v-11.41
							c0-0.475,0.386-0.859,0.856-0.859h11.408c0.473,0,0.857,0.385,0.857,0.859V334.975z"/>
					</g>
				</g>
			</g>
			<path fill="#365772" d="M564.748,221.519c0-1.266-0.487-2.528-1.446-3.491c-0.965-0.965-2.227-1.445-3.486-1.445h-96.631
				c-1.263,0-2.523,0.48-3.485,1.445c-0.968,0.962-1.45,2.225-1.45,3.491v42.467h106.499V221.519z"/>
			<path fill="#2F4F6B" d="M470.056,255.467c-0.775,0-1.51-0.301-2.059-0.853c-0.55-0.55-0.854-1.278-0.854-2.057V228.02
				c0-0.776,0.305-1.509,0.854-2.056c0.549-0.547,1.283-0.854,2.059-0.854h83.613c0.783,0,1.52,0.307,2.066,0.86
				c0.542,0.541,0.848,1.274,0.848,2.05v24.538c0,0.778-0.306,1.507-0.853,2.057c-0.542,0.546-1.278,0.853-2.062,0.853H470.056z"/>
			<path fill="#FEC00F" d="M470.056,227.16c-0.22,0-0.439,0.084-0.607,0.252c-0.168,0.167-0.253,0.389-0.253,0.608v24.538
				c0,0.216,0.085,0.439,0.253,0.607s0.388,0.253,0.607,0.253h83.613c0.221,0,0.439-0.085,0.609-0.253
				c0.164-0.168,0.248-0.392,0.248-0.607V228.02c0-0.219-0.084-0.44-0.248-0.608c-0.17-0.168-0.389-0.252-0.609-0.252H470.056z"/>
			<rect x="458.249" y="261.936" fill="#2F4F6B" width="106.499" height="2.051"/>
		</g>
	</g>
</g>
</svg>
